<svg width="24" height="24" viewBox="0 0 24 24" fill="none" xmlns="http://www.w3.org/2000/svg">
<g clip-path="url(#clip0_132_127)">
<rect width="24" height="24" rx="6.23437" fill="#5B6B00"/>
<path d="M7.15978 7.73491H8.47045V16.8873C8.47045 17.4131 8.37974 17.8685 8.19832 18.2535C8.0206 18.6386 7.75032 18.9366 7.38748 19.1477C7.02834 19.3587 6.57479 19.4642 6.02683 19.4642C5.9824 19.4642 5.93797 19.4642 5.89354 19.4642C5.84911 19.4642 5.80468 19.4642 5.76025 19.4642V18.2424C5.80468 18.2424 5.84541 18.2424 5.88243 18.2424C5.91946 18.2424 5.96019 18.2424 6.00462 18.2424C6.40448 18.2424 6.69697 18.1239 6.8821 17.887C7.06722 17.6537 7.15978 17.3205 7.15978 16.8873V7.73491ZM7.80401 6.31318C7.54854 6.31318 7.32824 6.22617 7.14312 6.05216C6.9617 5.87814 6.87099 5.66896 6.87099 5.42459C6.87099 5.18023 6.9617 4.97105 7.14312 4.79703C7.32824 4.62302 7.54854 4.53601 7.80401 4.53601C8.05948 4.53601 8.27792 4.62302 8.45934 4.79703C8.64446 4.97105 8.73703 5.18023 8.73703 5.42459C8.73703 5.66896 8.64446 5.87814 8.45934 6.05216C8.27792 6.22617 8.05948 6.31318 7.80401 6.31318Z" fill="#899447"/>
<path d="M11.3361 12.5732C11.5212 12.7472 11.7415 12.8342 11.997 12.8342C12.2525 12.8342 12.4709 12.7472 12.6523 12.5732C12.8374 12.3991 12.93 12.19 12.93 11.9456C12.93 11.7012 12.8374 11.492 12.6523 11.318C12.4709 11.144 12.2525 11.057 11.997 11.057C11.7415 11.057 11.5212 11.144 11.3361 11.318C11.1547 11.492 11.064 11.7012 11.064 11.9456C11.064 12.19 11.1547 12.3991 11.3361 12.5732Z" fill="#899447"/>
<path d="M15.9159 16.2652H14.6052L14.6052 7.11279C14.6052 6.58705 14.6959 6.13164 14.8774 5.74659C15.0551 5.36154 15.3254 5.06349 15.6882 4.85245C16.0473 4.64141 16.5009 4.5359 17.0489 4.5359C17.0933 4.5359 17.1377 4.5359 17.1821 4.5359C17.2266 4.5359 17.271 4.5359 17.3154 4.5359L17.3154 5.7577C17.271 5.7577 17.2303 5.7577 17.1932 5.7577C17.1562 5.7577 17.1155 5.7577 17.0711 5.7577C16.6712 5.7577 16.3787 5.87618 16.1936 6.11313C16.0085 6.34639 15.9159 6.67961 15.9159 7.11279L15.9159 16.2652ZM15.2717 17.6869C15.5271 17.6869 15.7474 17.7739 15.9326 17.948C16.114 18.122 16.2047 18.3312 16.2047 18.5755C16.2047 18.8199 16.114 19.0291 15.9326 19.2031C15.7474 19.3771 15.5271 19.4641 15.2717 19.4641C15.0162 19.4641 14.7978 19.3771 14.6163 19.2031C14.4312 19.0291 14.3387 18.8199 14.3387 18.5755C14.3387 18.3312 14.4312 18.122 14.6163 17.948C14.7978 17.7739 15.0162 17.6869 15.2717 17.6869Z" fill="#899447"/>
<path d="M13.7065 8.54209V9.90076H18.2355V8.54209H13.7065Z" fill="#899447"/>
</g>
<defs>
<clipPath id="clip0_132_127">
<rect width="24" height="24" rx="12" fill="white"/>
</clipPath>
</defs>
</svg>
