<svg width="139" height="28" viewBox="0 0 139 28" fill="none" xmlns="http://www.w3.org/2000/svg">
<g clip-path="url(#clip0_129_19)">
<rect width="28" height="28" rx="6.23437" fill="#5B6B00"/>
<g clip-path="url(#clip1_129_19)">
<path d="M8.06104 8.76652H9.6693V19.997C9.6693 20.6421 9.55799 21.2009 9.33538 21.6734C9.11731 22.1459 8.78566 22.5116 8.34044 22.7705C7.89976 23.0295 7.34323 23.159 6.67085 23.159C6.61634 23.159 6.56182 23.159 6.5073 23.159C6.45278 23.159 6.39827 23.159 6.34375 23.159V21.6598C6.39827 21.6598 6.44824 21.6598 6.49367 21.6598C6.5391 21.6598 6.58908 21.6598 6.64359 21.6598C7.13425 21.6598 7.49315 21.5144 7.72031 21.2236C7.94746 20.9374 8.06104 20.5285 8.06104 19.997V8.76652ZM8.85154 7.02198C8.53806 7.02198 8.26775 6.91522 8.0406 6.7017C7.81798 6.48817 7.70668 6.23149 7.70668 5.93165C7.70668 5.6318 7.81798 5.37512 8.0406 5.16159C8.26775 4.94807 8.53806 4.84131 8.85154 4.84131C9.16501 4.84131 9.43305 4.94807 9.65567 5.16159C9.88282 5.37512 9.9964 5.6318 9.9964 5.93165C9.9964 6.23149 9.88282 6.48817 9.65567 6.7017C9.43305 6.91522 9.16501 7.02198 8.85154 7.02198Z" fill="#899447"/>
<path d="M13.1855 14.7033C13.4126 14.9168 13.6829 15.0236 13.9964 15.0236C14.3099 15.0236 14.5779 14.9168 14.8006 14.7033C15.0277 14.4898 15.1413 14.2331 15.1413 13.9332C15.1413 13.6334 15.0277 13.3767 14.8006 13.1632C14.5779 12.9497 14.3099 12.8429 13.9964 12.8429C13.6829 12.8429 13.4126 12.9497 13.1855 13.1632C12.9629 13.3767 12.8516 13.6334 12.8516 13.9332C12.8516 14.2331 12.9629 14.4898 13.1855 14.7033Z" fill="#899447"/>
<path d="M18.8052 19.2336H17.1969V8.00313C17.1969 7.35801 17.3082 6.79921 17.5308 6.32673C17.7489 5.85425 18.0805 5.48854 18.5258 5.22958C18.9665 4.97063 19.523 4.84115 20.1954 4.84115C20.2499 4.84115 20.3044 4.84115 20.3589 4.84115C20.4134 4.84115 20.4679 4.84115 20.5225 4.84115V6.34036C20.4679 6.34036 20.418 6.34036 20.3725 6.34036C20.3271 6.34036 20.2771 6.34036 20.2226 6.34036C19.732 6.34036 19.3731 6.48574 19.1459 6.7765C18.9187 7.06271 18.8052 7.47159 18.8052 8.00313V19.2336ZM18.0147 20.9781C18.3281 20.9781 18.5985 21.0849 18.8256 21.2984C19.0482 21.5119 19.1595 21.7686 19.1595 22.0685C19.1595 22.3683 19.0482 22.625 18.8256 22.8385C18.5985 23.0521 18.3281 23.1588 18.0147 23.1588C17.7012 23.1588 17.4332 23.0521 17.2105 22.8385C16.9834 22.625 16.8698 22.3683 16.8698 22.0685C16.8698 21.7686 16.9834 21.5119 17.2105 21.2984C17.4332 21.0849 17.7012 20.9781 18.0147 20.9781Z" fill="#899447"/>
<path d="M16.0942 9.75692V11.4241H21.6514V9.75692H16.0942Z" fill="#899447"/>
</g>
<path d="M41.62 22.22C40.74 22.22 39.9627 22.0513 39.288 21.714C38.628 21.362 38.0853 20.8927 37.66 20.306L39.112 18.964C39.3907 19.3747 39.7353 19.69 40.146 19.91C40.5713 20.13 41.0407 20.24 41.554 20.24C42.0673 20.24 42.522 20.13 42.918 19.91C43.314 19.69 43.622 19.3673 43.842 18.942C44.0767 18.502 44.194 17.9667 44.194 17.336V6.732H46.262V17.226C46.262 18.238 46.0567 19.118 45.646 19.866C45.25 20.614 44.7 21.1933 43.996 21.604C43.3067 22.0147 42.5147 22.22 41.62 22.22ZM54.1186 22.22C53.0919 22.22 52.1679 21.978 51.3466 21.494C50.5252 21.01 49.8726 20.3573 49.3886 19.536C48.9046 18.7 48.6626 17.7687 48.6626 16.742C48.6626 15.73 48.9046 14.8207 49.3886 14.014C49.8726 13.1927 50.5252 12.54 51.3466 12.056C52.1679 11.572 53.0919 11.33 54.1186 11.33C55.1306 11.33 56.0472 11.572 56.8686 12.056C57.7046 12.5253 58.3646 13.1707 58.8486 13.992C59.3326 14.8133 59.5746 15.73 59.5746 16.742C59.5746 17.7687 59.3326 18.7 58.8486 19.536C58.3646 20.3573 57.7046 21.01 56.8686 21.494C56.0472 21.978 55.1306 22.22 54.1186 22.22ZM54.1186 20.306C54.7786 20.306 55.3652 20.152 55.8786 19.844C56.3919 19.536 56.7952 19.118 57.0886 18.59C57.3819 18.0473 57.5286 17.4313 57.5286 16.742C57.5286 16.0673 57.3746 15.466 57.0666 14.938C56.7732 14.41 56.3699 13.9993 55.8566 13.706C55.3579 13.398 54.7786 13.244 54.1186 13.244C53.4586 13.244 52.8719 13.398 52.3586 13.706C51.8452 13.9993 51.4419 14.41 51.1486 14.938C50.8552 15.466 50.7086 16.0673 50.7086 16.742C50.7086 17.4313 50.8552 18.0473 51.1486 18.59C51.4419 19.118 51.8452 19.536 52.3586 19.844C52.8719 20.152 53.4586 20.306 54.1186 20.306ZM66.6455 22.22C65.6042 22.22 64.6655 21.9853 63.8295 21.516C62.9935 21.032 62.3335 20.3793 61.8495 19.558C61.3655 18.7367 61.1235 17.8053 61.1235 16.764C61.1235 15.7373 61.3582 14.8133 61.8275 13.992C62.3115 13.1707 62.9568 12.5253 63.7635 12.056C64.5848 11.572 65.5015 11.33 66.5135 11.33C67.4815 11.33 68.3322 11.55 69.0655 11.99C69.8135 12.43 70.3928 13.0387 70.8035 13.816C71.2288 14.5933 71.4415 15.4733 71.4415 16.456C71.4415 16.6027 71.4342 16.764 71.4195 16.94C71.4048 17.1013 71.3755 17.292 71.3315 17.512H62.5095V15.862H70.2755L69.5495 16.5C69.5495 15.796 69.4248 15.202 69.1755 14.718C68.9262 14.2193 68.5742 13.838 68.1195 13.574C67.6648 13.2953 67.1148 13.156 66.4695 13.156C65.7948 13.156 65.2008 13.3027 64.6875 13.596C64.1742 13.8893 63.7782 14.3 63.4995 14.828C63.2208 15.356 63.0815 15.9793 63.0815 16.698C63.0815 17.4313 63.2282 18.0767 63.5215 18.634C63.8148 19.1767 64.2328 19.602 64.7755 19.91C65.3182 20.2033 65.9415 20.35 66.6455 20.35C67.2322 20.35 67.7675 20.2473 68.2515 20.042C68.7502 19.8367 69.1755 19.5287 69.5275 19.118L70.8035 20.416C70.3048 21.0027 69.6888 21.45 68.9555 21.758C68.2368 22.066 67.4668 22.22 66.6455 22.22ZM73.6004 22V6.292H75.5804V22H73.6004ZM83.4056 22V6.732H85.4736V22H83.4056ZM84.8136 15.29V13.398H92.7776V15.29H84.8136ZM84.8136 8.624V6.732H93.1516V8.624H84.8136ZM95.5145 22V11.55H97.4945V22H95.5145ZM97.4945 16.038L96.7465 15.708C96.7465 14.3733 97.0545 13.31 97.6705 12.518C98.2865 11.726 99.1738 11.33 100.333 11.33C100.861 11.33 101.337 11.4253 101.763 11.616C102.188 11.792 102.584 12.0927 102.951 12.518L101.653 13.86C101.433 13.6253 101.191 13.4567 100.927 13.354C100.663 13.2513 100.355 13.2 100.003 13.2C99.2692 13.2 98.6678 13.4347 98.1985 13.904C97.7292 14.3733 97.4945 15.0847 97.4945 16.038ZM108.445 22.22C107.491 22.22 106.626 21.9853 105.849 21.516C105.071 21.032 104.455 20.3793 104.001 19.558C103.561 18.7367 103.341 17.8127 103.341 16.786C103.341 15.7593 103.561 14.8353 104.001 14.014C104.455 13.1927 105.064 12.54 105.827 12.056C106.604 11.572 107.477 11.33 108.445 11.33C109.237 11.33 109.941 11.4987 110.557 11.836C111.187 12.1587 111.693 12.6133 112.075 13.2C112.456 13.772 112.669 14.4393 112.713 15.202V18.348C112.669 19.096 112.456 19.7633 112.075 20.35C111.708 20.9367 111.209 21.3987 110.579 21.736C109.963 22.0587 109.251 22.22 108.445 22.22ZM108.775 20.35C109.757 20.35 110.549 20.02 111.151 19.36C111.752 18.6853 112.053 17.8273 112.053 16.786C112.053 16.0673 111.913 15.444 111.635 14.916C111.371 14.3733 110.989 13.9553 110.491 13.662C109.992 13.354 109.413 13.2 108.753 13.2C108.093 13.2 107.506 13.354 106.993 13.662C106.494 13.97 106.098 14.3953 105.805 14.938C105.526 15.466 105.387 16.0747 105.387 16.764C105.387 17.468 105.526 18.0913 105.805 18.634C106.098 19.162 106.501 19.58 107.015 19.888C107.528 20.196 108.115 20.35 108.775 20.35ZM111.921 22V19.184L112.295 16.632L111.921 14.102V11.55H113.923V22H111.921ZM124.198 22V15.906C124.198 15.114 123.948 14.4613 123.45 13.948C122.951 13.4347 122.306 13.178 121.514 13.178C120.986 13.178 120.516 13.2953 120.106 13.53C119.695 13.7647 119.372 14.0873 119.138 14.498C118.903 14.9087 118.786 15.378 118.786 15.906L117.972 15.444C117.972 14.652 118.148 13.948 118.5 13.332C118.852 12.716 119.343 12.232 119.974 11.88C120.604 11.5133 121.316 11.33 122.108 11.33C122.9 11.33 123.596 11.528 124.198 11.924C124.814 12.32 125.298 12.8407 125.65 13.486C126.002 14.1167 126.178 14.7913 126.178 15.51V22H124.198ZM116.806 22V11.55H118.786V22H116.806ZM135.546 22L130.662 16.654L135.502 11.55H137.9L132.51 17.182L132.598 16.038L138.098 22H135.546ZM128.858 22V6.292H130.838V22H128.858Z" fill="#273300"/>
</g>
<defs>
<clipPath id="clip0_129_19">
<rect width="139" height="28" fill="white"/>
</clipPath>
<clipPath id="clip1_129_19">
<rect width="19.6328" height="19.6328" fill="white" transform="translate(4.18359 4.18359)"/>
</clipPath>
</defs>
</svg>
